
<global>
amp_veltrack=0
ampeg_release=0.85
</global>

<group>
group_label=PP
lpc_hicc1=42
lpc_locc1=0

<region>
hikey=B2
hivel=127
lokey=A#2
lovel=0
lpc=Jg/+QoXQksMosR5DAQpuQeKWHkIqCQ/CcFDawDbQMMFH/7pAD/Wuv8Ka37/9q40/5jmZv0TVlkAJMcFA35sIwPnEgz8p+KrAk3jrv1KuOcAX2mZAxKacP57aTEBLqjTA
lpc_rms=-51.31
offset=4579
pitch_keycenter=A#2
sample=Trombone_Marcato_Quarter_PP_A#3.opus
tune=-40
</region>

<region>
hikey=B3
hivel=127
lokey=A#3
lovel=0
lpc=SM1TQ/FaC8RzMs5DeY0GwlWVQ0KxvsfCVwcLQRupQ8Enq9JBqXEKwT3TA0CcoidBubRywGJEFsHt7lNAwyLzv2AxFEFbs8bAB5WSwMrN5D/bVjpAAuA4Qb5+msHphf1A
lpc_rms=-44.45
offset=2321
pitch_keycenter=A#3
sample=Trombone_Marcato_Quarter_PP_A#4.opus
tune=-17
</region>

<region>
hikey=D#5
hivel=127
lokey=A#4
lovel=0
lpc=0gxaQyxWHcSTHRdEOvxHw8JP20KZM1LDb3sgQ7BCqsJJjF9CHgdawpxbKkJxplQ+0SLxwDxXO0CC5nZAmFLQwaOvvEH7iM3BuHCnQQR/jMDXK+tBRWMXwb1AScJiAgpC
lpc_rms=-39.28
offset=8020
pitch_keycenter=A#4
sample=Trombone_Marcato_Quarter_PP_A#5.opus
tune=-20
</region>

<region>
hikey=C#3
hivel=127
lokey=C3
lovel=0
lpc=Bu+OQs0dJMMKaLlC1+GeQGQWnUGzX6HB6JOmwDoeesAsu0NAm+r9PoTvF7wzeNU/JNEQv8NHUj6YZa0/tZQawOANpT/qJCc/0iyrv06IPj+dk8K/sJkaQGludr9i0im+
lpc_rms=-56.16
offset=4973
pitch_keycenter=C3
sample=Trombone_Marcato_Quarter_PP_C4.opus
tune=+3
</region>

<region>
hikey=C#4
hivel=127
lokey=C4
lovel=0
lpc=RHH3QqwppcNhKX5DTQTBwRaonUH7dW3CfXJcQbGmUMARQEhBNi48wY3hh76nN4xAm6BkPj6bCD9HVd5AV10/v0vGoj8ziRbBYYftwJxjcz8lgB9Bd7YlQQXJU8HnIPk/
lpc_rms=-48.85
offset=7344
sample=Trombone_Marcato_Quarter_PP_C5.opus
tune=-16
</region>

<region>
hikey=D#3
hivel=127
lokey=D3
lovel=0
lpc=nicAQ3ScnMPstktDUMFTwHOT7EE6TFnCUA8DQVUwF8GxUYdBuZo1wDr5ysAvhb698KIBveZBnkB+t3C9eKDZvd28fzsCFC8/iE+MwKrwBEB8tQW/meXHQKYLO8HXQ8dA
lpc_rms=-50.05
offset=3505
pitch_keycenter=D3
sample=Trombone_Marcato_Quarter_PP_D4.opus
tune=-19
</region>

<region>
hikey=D#4
hivel=127
lokey=D4
lovel=0
lpc=8ntKQ8XSCsSq8+JDJ81zwpDu30GTU+3CjK9BQhXgucDlZeVBtEaRwVRss8HPH7BB4kSZwOsKQEC5xh9BZUAmwT5X7EAVnAjBixZwwaF3O0Gigp5BoHZCP3pDBsKOI5FB
lpc_rms=-43.94
offset=5722
pitch_keycenter=D4
sample=Trombone_Marcato_Quarter_PP_D5.opus
tune=-29
</region>

<region>
hikey=F2
hivel=127
lokey=C1
lovel=0
lpc=Do/HQsxwhMMCG0xD5R9nwa5CnkDHpD3CrQf9QD+aKkFnFv5ATTzwwDUb0sDYIOs/Kl6kQPh1dkByKQzAbDy7wKQjJkCw+qW/EtCuP8T9pD+WJrI+JCxyPH7rccChiCFA
lpc_rms=-51.33
offset=8806
pitch_keycenter=E2
sample=Trombone_Marcato_Quarter_PP_E3.opus
tune=-29
</region>

<region>
hikey=F3
hivel=127
lokey=E3
lovel=0
lpc=StPLQnbJd8OtJiFDVvI5wK3ZxEHAxjnC767CQFOa4b8LteNAXHirP47JkcA/NI0+fOEVP9CVDj/9GK9AJv4NwTUDn0C5iCnASBckP+SUeT91eZ4/tgjtPyNL/MANKZBA
lpc_rms=-52.09
offset=8123
pitch_keycenter=E3
sample=Trombone_Marcato_Quarter_PP_E4.opus
tune=-5
</region>

<region>
hikey=F4
hivel=127
lokey=E4
lovel=0
lpc=V6LlQmHsm8Ne13hDohrRwdLuW0FdZoTCULjbQZ3bf8DVZRpBl+gBwdR+CMEuhEVBrB+PP0lQfkDxnoXA9qOmwE1/GEASpgbA+2oNQCgQOMDQ1FVAtilsQEtxgsDgzi0+
lpc_rms=-49.21
offset=5633
pitch_keycenter=E4
sample=Trombone_Marcato_Quarter_PP_E5.opus
tune=-26
</region>

<region>
hikey=G2
hivel=127
lokey=F#2
lovel=0
lpc=kcifQkI9IcM3IYJClGvQQEDPAEITYE/BmBkbwG72EsH5HG8+QLGqPxGD/r+MPSFApSB0v60xGECn7w09vEsMv04FeD/G0kS/Zrjlv4ZP4ry2Ld0+1BDTP2GONsBbOuY/
lpc_rms=-57.03
offset=10020
pitch_keycenter=F#2
sample=Trombone_Marcato_Quarter_PP_F#3.opus
tune=-36
</region>

<region>
hikey=G3
hivel=127
lokey=F#3
lovel=0
lpc=mRo4Qxkm5sM0VJ5D4jd0wWqfD0JRYKTCje2YQYXQjMCk5HZBI5CQwbhtwD9ap1dBJC2hwBDBA0C11gTAZqMDwbOfSUFOfYA/fHdfwKSXpcCX4S4/urbCPw2WgcCd1pFA
lpc_rms=-46.16
offset=4863
pitch_keycenter=F#3
sample=Trombone_Marcato_Quarter_PP_F#4.opus
tune=-16
</region>

<region>
hikey=G4
hivel=127
lokey=F#4
lovel=0
lpc=Il4JQ1zruMNJ0pJDl/AtwgZiEELr85vC/G3yQYrtksGzKk9BBMSRwLtYVb8sqGtBTqQdwTumTD5849VA2DBJwe1YrkBtIuQ/V1/+wJbn20Crb4RAmjUTQZrK0MF/JU9B
lpc_rms=-47.35
offset=7836
pitch_keycenter=F#4
sample=Trombone_Marcato_Quarter_PP_F#5.opus
tune=-25
</region>

<region>
hikey=A2
hivel=127
lokey=G#2
lovel=0
lpc=ZhiMQknDGMPpZJRC7D3qQFFAxUE8u3fBiSkgwHvcFsEaOuk/nGxDv4owDz9Yv3NAaxoXwNiYIj/f1wtAgKooP/0atr/KfQA/3/Y2wI3VDz7wu/2+WmRXPyRVQ0AivgTA
lpc_rms=-57.08
offset=5015
pitch_keycenter=G#2
sample=Trombone_Marcato_Quarter_PP_G#3.opus
tune=-23
</region>

<region>
hikey=A3
hivel=127
lokey=G#3
lovel=0
lpc=/TfeQnSXkMPIrV1DxsTHwUJnjEF5/mPCa+6EQR+vy79vfDBBtE6twH8XM8C7KZVAxPiMv3V6Jb+zaUFATjybwCqRz0BKKrvAJ9BFwEBTIUCRgmRAIrCEQGuKFMERd2tA
lpc_rms=-50.06
offset=5047
pitch_keycenter=G#3
sample=Trombone_Marcato_Quarter_PP_G#4.opus
tune=-16
</region>

<region>
hikey=A4
hivel=127
lokey=G#4
lovel=0
lpc=tjx3Qy1bN8Ts2DBE0Ntdw4miAkNpMnXDxSATQ/mxY8JNHzRCGrBCwt/CKULL6xbAHy6KwVPdCUHwhiRBq6BOwdk6FT9JURvBGu2TQIiRsD77CalAKXJVQjQBvsL/jylC
lpc_rms=-39.13
offset=632
pitch_keycenter=G#4
sample=Trombone_Marcato_Quarter_PP_G#5.opus
tune=-31
</region>
</group>

<group>
group_label=MF
lpc_hicc1=84
lpc_locc1=43

<region>
hikey=B2
hivel=127
lokey=A#2
lovel=0
lpc=bL/+QoxEwMPwdsdDyXcZwxhVMEICxpjCFhqTQpgKJsLJII9BFv6WwWlifUERHKa/Dzs/Qf0TAsJyft5Bq8RQwTPjyEGMxiLCcOQGQsm7/cF7twZCNlmXwUGxqT9G8hBA
lpc_rms=-42.22
offset=4488
pitch_keycenter=A#2
sample=Trombone_Marcato_Quarter_MF_A#3.opus
tune=-41
</region>

<region>
hikey=B3
hivel=127
lokey=A#3
lovel=0
lpc=zzo3Q9+WH8S9IElEl17Pww89CUM3Kz3D8YMGQ5Lofr1bwvPAYsGAwP//0cHthj9Ce01awsUvxEGL3BVCL06Pwhi3o0LUDKjCZLhMQrd2p8FQkRtCDMJfwmY3BUJcLN3A
lpc_rms=-37.15
offset=1592
pitch_keycenter=A#3
sample=Trombone_Marcato_Quarter_MF_A#4.opus
tune=-23
</region>

<region>
hikey=D#5
hivel=127
lokey=A#4
lovel=0
lpc=AI7zQudfzcPCTgdEIFitwz4UJkMsGTPDmFEoQxvLiML7S/RBpxwvwiz3BUGgLgZCi4eFwaLKL8HF5zdBp4gDwkxdu0JxnubCu/2FQnM8DMJfPyVCmBuYwRVHbcGG4UNB
lpc_rms=-35.29
offset=325
pitch_keycenter=A#4
sample=Trombone_Marcato_Quarter_MF_A#5.opus
tune=-26
</region>

<region>
hikey=C#3
hivel=127
lokey=C3
lovel=0
lpc=0takQr4kiMNgT6dDULgtw7ltHEL/gSHCgSNCQlBsr8F1jTRBtyUhwQRtLcGKgQ1CXF4VwuvdTEEAuJFB3ufpwcj14EF1TfjB+5MCQgSyAsIDswJCmpnUwVJUZUElrWvA
lpc_rms=-45.34
offset=3399
pitch_keycenter=C3
sample=Trombone_Marcato_Quarter_MF_C4.opus
tune=-17
</region>

<region>
hikey=C#4
hivel=127
lokey=C4
lovel=0
lpc=7ekJQ+FN+MP5ByhEpobCwyzlyULbNszCcMvpQnoaMMKoXptBBhKuwcHkm8Cxvf9BelYowp00yUERSY9Blks6woQCNUIHGQXCSFqJQVkh5b7dJ0DAYnGfwEdj3kD5w/+/
lpc_rms=-40.36
offset=5155
sample=Trombone_Marcato_Quarter_MF_C5.opus
tune=-16
</region>

<region>
hikey=D#3
hivel=127
lokey=D3
lovel=0
lpc=9v9NQyVSJ8QGIT9EQYWfw/DVHEK2tszCtuD5Qh46M8Ka+XFBVUUWwvEcjECWbE5C94MvwqOWn0Gu6K7A7l2mwY+qAEI5ybvBhvu9Qf3h2ME6cXRBkTeBwOQDEkATKXS/
lpc_rms=-39.23
offset=1617
pitch_keycenter=D3
sample=Trombone_Marcato_Quarter_MF_D4.opus
tune=-19
</region>

<region>
hikey=D#4
hivel=127
lokey=D4
lovel=0
lpc=ff0dQ/4HBcRWSh1EZwGAw75nYEFi+8TCLtEBQ0L5P8I+TtVAS8XcwDeGTsFbPDNCFb/JwQ5GrsH+NO9B92W6weTOB0ILPiLCofbkQfCNmsF2fqhBIYflwMEVNsGn3/ZA
lpc_rms=-40.17
offset=5068
pitch_keycenter=D4
sample=Trombone_Marcato_Quarter_MF_D5.opus
tune=-30
</region>

<region>
hikey=F2
hivel=127
lokey=C1
lovel=0
lpc=qUlZQqqQQsMHQpBD+Ydmw6E79kLiL5XC0f5vQpqFHsKE38FBreGjwf6XS0GIqFVAIOZUwe9fnEDff1xBambCwWaEz0FFK8rBLmqhQcS+QMH5kaxATt5Ev58PsL8OuVQ/
lpc_rms=-45.53
offset=7704
pitch_keycenter=E2
sample=Trombone_Marcato_Quarter_MF_E3.opus
tune=-22
</region>

<region>
hikey=F3
hivel=127
lokey=E3
lovel=0
lpc=XxLgQvN8psMEZ69DQRkWw127IEL6GUvCA5ldQhz0BsKOK6BBnCyFwV6HLUDPfL5A63A0wfAHjkHr1ILAOxyRwUzGFkJcASnCfmCnQfbbG8EJ6EdBRM4EQNpIWcGVqcZA
lpc_rms=-45.19
offset=2841
pitch_keycenter=E3
sample=Trombone_Marcato_Quarter_MF_E4.opus
tune=-21
</region>

<region>
hikey=F4
hivel=127
lokey=E4
lovel=0
lpc=wdHXQhXbtMNWDttDO9pQw41dSULBVLHC7ufIQlZmUMI7X7BBQT8dwEEtgMGdU8FBDmzjwZRpn0HxSKJBYHd5wr9CkEJ6PFbCeq/cQUjlvsHrRupBVvQuwT8p8MBosJ9A
lpc_rms=-41.56
offset=867
pitch_keycenter=E4
sample=Trombone_Marcato_Quarter_MF_E5.opus
tune=-20
</region>

<region>
hikey=G2
hivel=127
lokey=F#2
lovel=0
lpc=T5mBQvcpYsNywp1DSdFbw7d8t0KOC3XCzJmAQvCoCML4l89ACnECwaIGpkDI/IhBHQ7gweX1G0EpyIRB9WLpwRs2AUI1N/bBXyWmQekw3MAmZSjA7f+uQJ8/bcDEwIo/
lpc_rms=-45.40
offset=7933
pitch_keycenter=F#2
sample=Trombone_Marcato_Quarter_MF_F#3.opus
tune=-31
</region>

<region>
hikey=G3
hivel=127
lokey=F#3
lovel=0
lpc=lIkTQy9A4MPOteNDIUATwxnDBkLaobPCI5cjQmtYaEFDLVBBSVjnweBf4MAZc/BBnz46wbvcx8D6YlhBpkepwcvnq0E244TB+BxKQdyXjsDRUPO/PG4CvweKhj4I1qE/
lpc_rms=-43.61
offset=3699
pitch_keycenter=F#3
sample=Trombone_Marcato_Quarter_MF_F#4.opus
tune=-12
</region>

<region>
hikey=G4
hivel=127
lokey=F#4
lovel=0
lpc=EhsJQ5aV/8MbWzpE/2MAxJlZRkPQoSbDx15PQ2ZoAMMKSBZCPslqP9hy9MEZendC45abwlqWjUJI7CbCd9QVwZHkikJDPavClRcwQvWLjcF2ChtCjKtIwvCw3EHAPbXA
lpc_rms=-37.02
offset=406
pitch_keycenter=F#4
sample=Trombone_Marcato_Quarter_MF_F#5.opus
tune=-18
</region>

<region>
hikey=A2
hivel=127
lokey=G#2
lovel=0
lpc=tP+xQjzvmcMuoMpDs61uw5wBkkLqGYnCAAemQiknKcKvJTVBgggNwYamNz8arVBBqhISwY7cEsHEf4VBluwhwdK0PkEPxZXBp4RxQdLvOcHKJTdBY02fwHrfwL9iSLY/
lpc_rms=-42.89
offset=3632
pitch_keycenter=G#2
sample=Trombone_Marcato_Quarter_MF_G#3.opus
tune=-43
</region>

<region>
hikey=A3
hivel=127
lokey=G#3
lovel=0
lpc=NOoYQ+T0/cMxjxtEb2OtwxmdFUOXFSLDCsobQ7KQs8K1JipCUF8NwsHDW0GH9OZBUcULwpVERkCRZyJCG1qhwg9CvUJkA5fCY/wsQhXusMGdV3JBBdkawdn7Q0APbji+
lpc_rms=-37.28
offset=2002
pitch_keycenter=G#3
sample=Trombone_Marcato_Quarter_MF_G#4.opus
tune=-34
</region>

<region>
hikey=A4
hivel=127
lokey=G#4
lovel=0
lpc=KRpNQzN3NcRepm9EzXwOxHFGX0PWkEzDl4MlQ3CdpcINMVlCPRcJwraKOUFKTjFCdJ3BwsLGWUJL0OdBoAigwtLW20LLAb7C8EGAQj+ztcJuSqlCFYxoQXJfgsKc3NhB
lpc_rms=-33.52
offset=1241
pitch_keycenter=G#4
sample=Trombone_Marcato_Quarter_MF_G#5.opus
tune=-32
</region>
</group>

<group>
group_label=FF
lpc_hicc1=127
lpc_locc1=85

<region>
hikey=B2
hivel=127
lokey=A#2
lovel=0
lpc=piCtQL6TM8H3LSpBPVIEwSQe2kAEcKjA7716QOSbMMD0ow1ApLHiv51QpD/Oy3a/KO1FP3FfRL8ej4k/cDDUv5fAEECL0Q3A3IsBQL4t7b+6pcU/ur+Mv+0UFT8WYSS+
lpc_rms=-32.97
offset=1060
pitch_keycenter=A#2
sample=Trombone_Marcato_Quarter_FF_A#3.opus
tune=-49
</region>

<region>
hikey=B3
hivel=127
lokey=A#3
lovel=0
lpc=KhfZQOKAc8H9+HBB1wk4wcsAG0FrFu/AW66sQIKkgcC0RDBAOvvyvzCTkD92C1i9tx0Jv+e0kr3hs3s/rmPzv1m3QEBDJ0HA2r4sQJTrP8DK4ShAl4mcv9pYIL7SdJU+
lpc_rms=-29.17
offset=3002
pitch_keycenter=A#3
sample=Trombone_Marcato_Quarter_FF_A#4.opus
tune=-13
</region>

<region>
hikey=D#5
hivel=127
lokey=A#4
lovel=0
lpc=tYBBQF2GhMC1wxBALxzUv6kO3D886Y6/oyOGPkBdFb5DSis9QC9KP2U3Jb/8hjk+IuVwvhOjsz6h+Bg+kIsMvzHPbz/pE0+/wwENPxlQzb7ZkY4+E0yFvnu+Hb4yA5M+
lpc_rms=-22.63
offset=1635
pitch_keycenter=A#4
sample=Trombone_Marcato_Quarter_FF_A#5.opus
tune=-19
</region>

<region>
hikey=C#3
hivel=127
lokey=C3
lovel=0
lpc=0/EtQDG3dcDE7RBAW97Hv/HfsT/pcGW/5zAiP0aBrL6Qj4c+nW9qvQut2zvdnFo9hUBivaFo6b0i36w+GSIIvzVFNT/WAgm/0MUCP5FxBr9VGfw+mzO+viOLIz70KnS6
lpc_rms=-33.92
offset=4068
pitch_keycenter=C3
sample=Trombone_Marcato_Quarter_FF_C4.opus
tune=-13
</region>

<region>
hikey=C#4
hivel=127
lokey=C4
lovel=0
lpc=UxixQHSsPsEUg0ZBzp0twQ6gGUGuIN3Aa76TQD/EWcDYrzpAKg4hwG3bAkCtU5a/EWSaPn7rhr5VZac/908PwD39MUDWhijAi98vQHlYL8DtzQVAEuXwv1vm3T9CUie/
lpc_rms=-29.77
offset=587
sample=Trombone_Marcato_Quarter_FF_C5.opus
tune=-12
</region>

<region>
hikey=D#3
hivel=127
lokey=D3
lovel=0
lpc=GIz4QNU0k8EQZ51Bu8B5waKdSUG5DCbBTYb7QIMgo8BK3WBAEhMZwKzTfD9lhpI9xWOlvjqSlr5RhZE/7k8AwORuQUA2hV3ABzhTQB1tQMCNtTdAZJohwFxXqj/JCGG+
lpc_rms=-33.82
offset=6040
pitch_keycenter=D3
sample=Trombone_Marcato_Quarter_FF_D4.opus
tune=-31
</region>

<region>
hikey=D#4
hivel=127
lokey=D4
lovel=0
lpc=oGESQUtvs8ET6M5BJLi5wXVXoEEwnnrBrgg4QXXDCMGrUL9AJYNbwKH2tj/BHiK/A82lP8iMWcD8gLtAIgjwwA8i/UC1J+rAtbbdQIlsu8AFi4ZAwrVbwL+8KkCNzGK/
lpc_rms=-27.41
offset=661
pitch_keycenter=D4
sample=Trombone_Marcato_Quarter_FF_D5.opus
tune=-14
</region>

<region>
hikey=F2
hivel=127
lokey=C1
lovel=0
lpc=PYYRQbovvcGOpeVBrafLwfdHq0HZiofBEeBBQQrA/sAjXLtAopqewMVxekBL+y/AINcGQKy6F8AqekNAIApuwE28k0BxMJzAPxSTQLHQjMB7/3hAqacnwHP3kz9tsG2+
lpc_rms=-39.71
offset=3431
pitch_keycenter=E2
sample=Trombone_Marcato_Quarter_FF_E3.opus
tune=-17
</region>

<region>
hikey=F3
hivel=127
lokey=E3
lovel=0
lpc=8lPnQMOqi8EtmaZBS3mdwfBKkEHMAHLBMflEQduQH8He3ghBu3niwACFqEDvqFrAeP+5PwmwAL/RW7U/gVsQwBiUSkBmX2rAq9xWQN8yKsDLrwRA2XqGvwBL3T3l0F4+
lpc_rms=-31.21
offset=1208
pitch_keycenter=E3
sample=Trombone_Marcato_Quarter_FF_E4.opus
tune=-30
</region>

<region>
hikey=F4
hivel=127
lokey=E4
lovel=0
lpc=na2/QEorWcFmO3RBGkZYwUA4OkH/OxPBvDvkQLmfpsBv9ItAPmFjwOZyN0ANESzAfD8LQDD94r85JR5ADRE5wMWzWUCit3vARlaQQJu0jMBG/15A+8QbwAocsD8sYKy+
lpc_rms=-29.72
offset=705
pitch_keycenter=E4
sample=Trombone_Marcato_Quarter_FF_E5.opus
tune=-20
</region>

<region>
hikey=G2
hivel=127
lokey=F#2
lovel=0
lpc=sMKdQCuqKMFsNCtB6QIMwTpi60DYT7jAiI+DQMWBMsA1kQRAINvRv+RZkz9uCC2/OrXtPsWyG7893oE/MNLuv8zTJEBE+ynAUaoeQGlxA8BkP8s/+jWXv3vgCz+RBrC9
lpc_rms=-37.65
offset=2776
pitch_keycenter=F#2
sample=Trombone_Marcato_Quarter_FF_F#3.opus
tune=-17
</region>

<region>
hikey=G3
hivel=127
lokey=F#3
lovel=0
lpc=STS+QPUAQsFywy5B5oAIweWq90CjFrjAgqJ1QKk2RMAuoxxAF2vGv+NUcz/X1Qi/08BKPrZKIL8DD7I/FxzMvyzG9D8Ip+S/C5jEP6vcpL/tgpw/tRZiv7RPAr1VHpU+
lpc_rms=-30.05
pitch_keycenter=F#3
sample=Trombone_Marcato_Quarter_FF_F#4.opus
tune=-29
</region>

<region>
hikey=A2
hivel=127
lokey=G#2
lovel=0
lpc=nu54QG0738DTS7lAY8iLwDHcdEB/fzrAHqz9P7melb/L6YQ/PQwjv6ZRbTwnNOM9iEG8vJjmkL37tyY/xgiWv+2Axj9ZyrW/6jGbPyEcdb+VvC8/+/L9vgiofz4av4m9
lpc_rms=-33.25
offset=185
pitch_keycenter=G#2
sample=Trombone_Marcato_Quarter_FF_G#3.opus
tune=-37
</region>

<region>
hikey=A3
hivel=127
lokey=G#3
lovel=0
lpc=2OLXQHIhYsEIBVhBWwkwwXPQHUFzavbAIrSuQPm6aMBRhDNAUr3Zv4GrDz8ZZ5i+6h0xP+HYkb+c8f4/wrc7wAbAX0ArMTfA+cIVQEsqwr85rLg+mRb3PX/WoL5Jb5A+
lpc_rms=-26.39
offset=1581
pitch_keycenter=G#3
sample=Trombone_Marcato_Quarter_FF_G#4.opus
tune=-31
</region>

<region>
hikey=A4
hivel=127
lokey=F#4
lovel=0
lpc=t+l6QFrlusAWAXtAYNMzwFpfGUCcdp2/vR9cP4gG5r6Oq2Y/2KQ5vxn3Hz/+ol2+pYsMvgdG5j3yVpg+PPcDv5/ntD/t5oa/2a4KPxRaJL6AVMI9PC29vfTUKT7K4KQ9
lpc_rms=-22.45
offset=726
pitch_keycenter=G#4
sample=Trombone_Marcato_Quarter_FF_G#5.opus
tune=-26
</region>
</group>

<group>
group_label=RR1
seq_length=4
seq_position=1

<region>
hivel=42
key=G4
lovel=0
sample=Trombone_staccato_PP_G3_RR1.opus
tune=-20
</region>

<region>
hivel=42
key=G3
lovel=0
offset=935
sample=Trombone_staccato_PP_G2_RR1.opus
tune=-4
</region>

<region>
hivel=42
key=G2
lovel=0
sample=Trombone_staccato_PP_G1_RR1.opus
tune=-8
</region>

<region>
hivel=42
key=G#4
lovel=0
offset=489
sample=Trombone_staccato_PP_G#3_RR1.opus
tune=-25
</region>

<region>
hivel=42
key=G#3
lovel=0
offset=456
sample=Trombone_staccato_PP_G#2_RR1.opus
tune=-2
</region>

<region>
hivel=42
key=G#2
lovel=0
offset=854
sample=Trombone_staccato_PP_G#1_RR1.opus
tune=-14
</region>

<region>
hivel=42
key=F4
lovel=0
offset=835
sample=Trombone_staccato_PP_F3_RR1.opus
tune=-28
</region>

<region>
hivel=42
key=F3
lovel=0
offset=1710
sample=Trombone_staccato_PP_F2_RR1.opus
tune=-25
</region>

<region>
hivel=42
key=F2
lovel=0
sample=Trombone_staccato_PP_F1_RR1.opus
tune=-6
</region>

<region>
hivel=42
key=F#4
lovel=0
sample=Trombone_staccato_PP_F#3_RR1.opus
tune=-33
</region>

<region>
hivel=42
key=F#3
lovel=0
offset=826
sample=Trombone_staccato_PP_F#2_RR1.opus
tune=+3
</region>

<region>
hivel=42
key=F#2
lovel=0
offset=2064
sample=Trombone_staccato_PP_F#1_RR1.opus
tune=-7
</region>

<region>
hivel=42
key=E4
lovel=0
offset=169
sample=Trombone_staccato_PP_E3_RR1.opus
tune=-11
</region>

<region>
hivel=42
key=E3
lovel=0
offset=1406
sample=Trombone_staccato_PP_E2_RR1.opus
tune=-15
</region>

<region>
hikey=E2
hivel=42
lokey=C1
lovel=0
offset=4419
pitch_keycenter=E2
sample=Trombone_staccato_PP_E1_RR1.opus
tune=-8
</region>

<region>
hivel=42
key=D4
lovel=0
offset=516
sample=Trombone_staccato_PP_D3_RR1.opus
tune=-23
</region>

<region>
hivel=42
key=D3
lovel=0
sample=Trombone_staccato_PP_D2_RR1.opus
tune=-16
</region>

<region>
hivel=42
key=D#4
lovel=0
offset=507
sample=Trombone_staccato_PP_D#3_RR1.opus
tune=-25
</region>

<region>
hivel=42
key=D#3
lovel=0
offset=454
sample=Trombone_staccato_PP_D#2_RR1.opus
tune=-5
</region>

<region>
hivel=42
key=C5
lovel=0
offset=911
sample=Trombone_staccato_PP_C4_RR1.opus
tune=-21
</region>

<region>
hikey=C4
hivel=42
lokey=C4
lovel=0
offset=770
sample=Trombone_staccato_PP_C3_RR1.opus
tune=-22
</region>

<region>
hivel=42
key=C3
lovel=0
offset=244
sample=Trombone_staccato_PP_C2_RR1.opus
tune=+15
</region>

<region>
hivel=42
key=C#4
lovel=0
offset=1581
sample=Trombone_staccato_PP_C#3_RR1.opus
tune=-13
</region>

<region>
hivel=42
key=C#3
lovel=0
offset=3580
sample=Trombone_staccato_PP_C#2_RR1.opus
tune=+3
</region>

<region>
hivel=42
key=B4
lovel=0
offset=1286
sample=Trombone_staccato_PP_B3_RR1.opus
tune=-14
</region>

<region>
hivel=42
key=B3
lovel=0
offset=1129
sample=Trombone_staccato_PP_B2_RR1.opus
tune=+5
</region>

<region>
hivel=42
key=B2
lovel=0
offset=362
sample=Trombone_staccato_PP_B1_RR1.opus
tune=-2
</region>

<region>
hivel=42
key=A4
lovel=0
offset=225
sample=Trombone_staccato_PP_A3_RR1.opus
tune=-18
</region>

<region>
hivel=42
key=A3
lovel=0
offset=605
sample=Trombone_staccato_PP_A2_RR1.opus
tune=-12
</region>

<region>
hivel=42
key=A2
lovel=0
sample=Trombone_staccato_PP_A1_RR1.opus
tune=-12
</region>

<region>
hivel=42
key=A#4
lovel=0
offset=314
sample=Trombone_staccato_PP_A#3_RR1.opus
tune=-27
</region>

<region>
hivel=42
key=A#3
lovel=0
offset=144
sample=Trombone_staccato_PP_A#2_RR1.opus
tune=+14
</region>

<region>
hivel=42
key=A#2
lovel=0
offset=3446
sample=Trombone_staccato_PP_A#1_RR1.opus
tune=-9
</region>

<region>
hivel=86
key=G4
lovel=43
offset=103
sample=Trombone_staccato_MF_G3_RR1.opus
tune=-19
</region>

<region>
hivel=86
key=G3
lovel=43
sample=Trombone_staccato_MF_G2_RR1.opus
tune=-8
</region>

<region>
hivel=86
key=G2
lovel=43
offset=1019
sample=Trombone_staccato_MF_G1_RR1.opus
tune=-25
</region>

<region>
hivel=86
key=G#4
lovel=43
offset=748
sample=Trombone_staccato_MF_G#3_RR1.opus
tune=-26
</region>

<region>
hivel=86
key=G#3
lovel=43
offset=690
sample=Trombone_staccato_MF_G#2_RR1.opus
tune=+2
</region>

<region>
hivel=86
key=G#2
lovel=43
offset=1340
sample=Trombone_staccato_MF_G#1_RR1.opus
tune=-35
</region>

<region>
hivel=86
key=F4
lovel=43
offset=781
sample=Trombone_staccato_MF_F3_RR1.opus
tune=-17
</region>

<region>
hivel=86
key=F3
lovel=43
offset=1103
sample=Trombone_staccato_MF_F2_RR1.opus
tune=-32
</region>

<region>
hivel=86
key=F2
lovel=43
offset=1811
sample=Trombone_staccato_MF_F1_RR1.opus
tune=-8
</region>

<region>
hivel=86
key=F#4
lovel=43
offset=304
sample=Trombone_staccato_MF_F#3_RR1.opus
tune=-15
</region>

<region>
hivel=86
key=F#3
lovel=43
offset=1122
sample=Trombone_staccato_MF_F#2_RR1.opus
tune=-13
</region>

<region>
hivel=86
key=F#2
lovel=43
offset=2043
sample=Trombone_staccato_MF_F#1_RR1.opus
tune=-26
</region>

<region>
hivel=86
key=E4
lovel=43
offset=787
sample=Trombone_staccato_MF_E3_RR1.opus
tune=-12
</region>

<region>
hivel=86
key=E3
lovel=43
offset=132
sample=Trombone_staccato_MF_E2_RR1.opus
tune=-19
</region>

<region>
hikey=E2
hivel=86
lokey=C1
lovel=43
offset=1818
pitch_keycenter=E2
sample=Trombone_staccato_MF_E1_RR1.opus
tune=-17
</region>

<region>
hivel=86
key=D4
lovel=43
offset=498
sample=Trombone_staccato_MF_D3_RR1.opus
tune=-17
</region>

<region>
hivel=86
key=D3
lovel=43
offset=241
sample=Trombone_staccato_MF_D2_RR1.opus
tune=-12
</region>

<region>
hivel=86
key=D#4
lovel=43
offset=896
sample=Trombone_staccato_MF_D#3_RR1.opus
tune=-17
</region>

<region>
hivel=86
key=D#3
lovel=43
offset=457
sample=Trombone_staccato_MF_D#2_RR1.opus
tune=-28
</region>

<region>
hivel=86
key=C5
lovel=43
offset=174
sample=Trombone_staccato_MF_C4_RR1.opus
tune=-14
</region>

<region>
hikey=C4
hivel=86
lokey=C4
lovel=43
offset=848
sample=Trombone_staccato_MF_C3_RR1.opus
tune=-6
</region>

<region>
hivel=86
key=C3
lovel=43
offset=910
sample=Trombone_staccato_MF_C2_RR1.opus
</region>

<region>
hivel=86
key=C#4
lovel=43
offset=587
sample=Trombone_staccato_MF_C#3_RR1.opus
tune=-2
</region>

<region>
hivel=86
key=C#3
lovel=43
offset=235
sample=Trombone_staccato_MF_C#2_RR1.opus
tune=-25
</region>

<region>
hivel=86
key=B4
lovel=43
offset=811
sample=Trombone_staccato_MF_B3_RR1.opus
tune=-4
</region>

<region>
hivel=86
key=B3
lovel=43
sample=Trombone_staccato_MF_B2_RR1.opus
tune=-3
</region>

<region>
hivel=86
key=B2
lovel=43
offset=634
sample=Trombone_staccato_MF_B1_RR1.opus
tune=-30
</region>

<region>
hivel=86
key=A4
lovel=43
offset=836
sample=Trombone_staccato_MF_A3_RR1.opus
tune=-20
</region>

<region>
hivel=86
key=A3
lovel=43
sample=Trombone_staccato_MF_A2_RR1.opus
tune=-8
</region>

<region>
hivel=86
key=A2
lovel=43
offset=388
sample=Trombone_staccato_MF_A1_RR1.opus
tune=-30
</region>

<region>
hivel=86
key=A#4
lovel=43
offset=233
sample=Trombone_staccato_MF_A#3_RR1.opus
tune=-13
</region>

<region>
hivel=86
key=A#3
lovel=43
offset=341
sample=Trombone_staccato_MF_A#2_RR1.opus
tune=-10
</region>

<region>
hivel=86
key=A#2
lovel=43
offset=1188
sample=Trombone_staccato_MF_A#1_RR1.opus
tune=-27
</region>

<region>
hivel=127
key=G4
lovel=87
offset=954
sample=Trombone_staccato_FF_G3_RR1.opus
tune=-10
</region>

<region>
hivel=127
key=G3
lovel=87
offset=299
sample=Trombone_staccato_FF_G2_RR1.opus
tune=-2
</region>

<region>
hivel=127
key=G2
lovel=87
offset=501
sample=Trombone_staccato_FF_G1_RR1.opus
tune=-11
</region>

<region>
hivel=127
key=G#4
lovel=87
offset=548
sample=Trombone_staccato_FF_G#3_RR1.opus
tune=-16
</region>

<region>
hivel=127
key=G#3
lovel=87
offset=826
sample=Trombone_staccato_FF_G#2_RR1.opus
tune=-23
</region>

<region>
hivel=127
key=G#2
lovel=87
offset=966
sample=Trombone_staccato_FF_G#1_RR1.opus
tune=-11
</region>

<region>
hivel=127
key=F4
lovel=87
offset=479
sample=Trombone_staccato_FF_F3_RR1.opus
tune=-20
</region>

<region>
hivel=127
key=F3
lovel=87
offset=360
sample=Trombone_staccato_FF_F2_RR1.opus
tune=-10
</region>

<region>
hivel=127
key=F2
lovel=87
offset=175
sample=Trombone_staccato_FF_F1_RR1.opus
</region>

<region>
hivel=127
key=F#4
lovel=87
offset=429
sample=Trombone_staccato_FF_F#3_RR1.opus
tune=-21
</region>

<region>
hivel=127
key=F#3
lovel=87
sample=Trombone_staccato_FF_F#2_RR1.opus
tune=+8
</region>

<region>
hivel=127
key=F#2
lovel=87
offset=461
sample=Trombone_staccato_FF_F#1_RR1.opus
tune=-19
</region>

<region>
hivel=127
key=E4
lovel=87
offset=1117
sample=Trombone_staccato_FF_E3_RR1.opus
tune=-15
</region>

<region>
hivel=127
key=E3
lovel=87
offset=313
sample=Trombone_staccato_FF_E2_RR1.opus
tune=-15
</region>

<region>
hikey=E2
hivel=127
lokey=C1
lovel=87
offset=693
pitch_keycenter=E2
sample=Trombone_staccato_FF_E1_RR1.opus
tune=-17
</region>

<region>
hivel=127
key=D4
lovel=87
offset=192
sample=Trombone_staccato_FF_D3_RR1.opus
tune=+3
</region>

<region>
hivel=127
key=D3
lovel=87
offset=854
sample=Trombone_staccato_FF_D2_RR1.opus
tune=-3
</region>

<region>
hivel=127
key=D#4
lovel=87
offset=478
sample=Trombone_staccato_FF_D#3_RR1.opus
tune=-17
</region>

<region>
hivel=127
key=D#3
lovel=87
sample=Trombone_staccato_FF_D#2_RR1.opus
tune=-12
</region>

<region>
hivel=127
key=C5
lovel=87
offset=1269
sample=Trombone_staccato_FF_C4_RR1.opus
tune=-22
</region>

<region>
hikey=C4
hivel=127
lokey=C4
lovel=87
offset=294
sample=Trombone_staccato_FF_C3_RR1.opus
tune=-1
</region>

<region>
hivel=127
key=C3
lovel=87
offset=621
sample=Trombone_staccato_FF_C2_RR1.opus
tune=+2
</region>

<region>
hivel=127
key=C#4
lovel=87
offset=432
sample=Trombone_staccato_FF_C#3_RR1.opus
tune=+5
</region>

<region>
hivel=127
key=C#3
lovel=87
offset=253
sample=Trombone_staccato_FF_C#2_RR1.opus
tune=-7
</region>

<region>
hivel=127
key=B4
lovel=87
offset=1589
sample=Trombone_staccato_FF_B3_RR1.opus
tune=-10
</region>

<region>
hivel=127
key=B3
lovel=87
offset=526
sample=Trombone_staccato_FF_B2_RR1.opus
tune=+3
</region>

<region>
hivel=127
key=B2
lovel=87
offset=698
sample=Trombone_staccato_FF_B1_RR1.opus
tune=-6
</region>

<region>
hivel=127
key=A4
lovel=87
offset=886
sample=Trombone_staccato_FF_A3_RR1.opus
tune=-13
</region>

<region>
hivel=127
key=A3
lovel=87
offset=673
sample=Trombone_staccato_FF_A2_RR1.opus
tune=-8
</region>

<region>
hivel=127
key=A2
lovel=87
offset=410
sample=Trombone_staccato_FF_A1_RR1.opus
tune=-12
</region>

<region>
hivel=127
key=A#4
lovel=87
offset=335
sample=Trombone_staccato_FF_A#3_RR1.opus
tune=-7
</region>

<region>
hivel=127
key=A#3
lovel=87
offset=363
sample=Trombone_staccato_FF_A#2_RR1.opus
tune=-1
</region>

<region>
hivel=127
key=A#2
lovel=87
offset=354
sample=Trombone_staccato_FF_A#1_RR1.opus
tune=-19
</region>
</group>

<group>
group_label=RR2
seq_length=4
seq_position=2

<region>
hivel=42
key=G4
lovel=0
offset=6115
sample=Trombone_staccato_PP_G3_RR2.opus
tune=-23
</region>

<region>
hivel=42
key=G3
lovel=0
offset=5776
sample=Trombone_staccato_PP_G2_RR2.opus
tune=-13
</region>

<region>
hivel=42
key=G2
lovel=0
offset=934
sample=Trombone_staccato_PP_G1_RR2.opus
tune=-9
</region>

<region>
hivel=42
key=G#4
lovel=0
offset=7496
sample=Trombone_staccato_PP_G#3_RR2.opus
tune=-32
</region>

<region>
hivel=42
key=G#3
lovel=0
offset=5362
sample=Trombone_staccato_PP_G#2_RR2.opus
tune=-8
</region>

<region>
hivel=42
key=G#2
lovel=0
offset=2888
sample=Trombone_staccato_PP_G#1_RR2.opus
tune=-15
</region>

<region>
hivel=42
key=F4
lovel=0
offset=803
sample=Trombone_staccato_PP_F3_RR2.opus
tune=-33
</region>

<region>
hivel=42
key=F3
lovel=0
offset=2867
sample=Trombone_staccato_PP_F2_RR2.opus
tune=-15
</region>

<region>
hivel=42
key=F2
lovel=0
offset=2152
sample=Trombone_staccato_PP_F1_RR2.opus
tune=-8
</region>

<region>
hivel=42
key=F#4
lovel=0
offset=183
sample=Trombone_staccato_PP_F#3_RR2.opus
tune=-41
</region>

<region>
hivel=42
key=F#3
lovel=0
offset=4809
sample=Trombone_staccato_PP_F#2_RR2.opus
tune=-2
</region>

<region>
hivel=42
key=F#2
lovel=0
offset=5645
sample=Trombone_staccato_PP_F#1_RR2.opus
tune=-8
</region>

<region>
hivel=42
key=E4
lovel=0
offset=7067
sample=Trombone_staccato_PP_E3_RR2.opus
tune=-16
</region>

<region>
hivel=42
key=E3
lovel=0
offset=1136
sample=Trombone_staccato_PP_E2_RR2.opus
tune=-20
</region>

<region>
hikey=E2
hivel=42
lokey=C1
lovel=0
offset=6648
pitch_keycenter=E2
sample=Trombone_staccato_PP_E1_RR2.opus
tune=-16
</region>

<region>
hivel=42
key=D4
lovel=0
offset=707
sample=Trombone_staccato_PP_D3_RR2.opus
tune=-25
</region>

<region>
hivel=42
key=D3
lovel=0
offset=3601
sample=Trombone_staccato_PP_D2_RR2.opus
tune=-16
</region>

<region>
hivel=42
key=D#4
lovel=0
offset=10451
sample=Trombone_staccato_PP_D#3_RR2.opus
tune=-33
</region>

<region>
hivel=42
key=D#3
lovel=0
offset=6262
sample=Trombone_staccato_PP_D#2_RR2.opus
tune=+2
</region>

<region>
hivel=42
key=C5
lovel=0
offset=419
sample=Trombone_staccato_PP_C4_RR2.opus
tune=-25
</region>

<region>
hikey=C4
hivel=42
lokey=C4
lovel=0
offset=7723
sample=Trombone_staccato_PP_C3_RR2.opus
tune=-20
</region>

<region>
hivel=42
key=C3
lovel=0
offset=4646
sample=Trombone_staccato_PP_C2_RR2.opus
tune=+19
</region>

<region>
hivel=42
key=C#4
lovel=0
offset=1508
sample=Trombone_staccato_PP_C#3_RR2.opus
tune=-16
</region>

<region>
hivel=42
key=C#3
lovel=0
offset=3717
sample=Trombone_staccato_PP_C#2_RR2.opus
tune=-2
</region>

<region>
hivel=42
key=B4
lovel=0
sample=Trombone_staccato_PP_B3_RR2.opus
tune=-26
</region>

<region>
hivel=42
key=B3
lovel=0
offset=478
sample=Trombone_staccato_PP_B2_RR2.opus
tune=+3
</region>

<region>
hivel=42
key=B2
lovel=0
offset=5459
sample=Trombone_staccato_PP_B1_RR2.opus
tune=-3
</region>

<region>
hivel=42
key=A4
lovel=0
sample=Trombone_staccato_PP_A3_RR2.opus
tune=-18
</region>

<region>
hivel=42
key=A3
lovel=0
offset=7017
sample=Trombone_staccato_PP_A2_RR2.opus
tune=-6
</region>

<region>
hivel=42
key=A2
lovel=0
offset=2477
sample=Trombone_staccato_PP_A1_RR2.opus
tune=-6
</region>

<region>
hivel=42
key=A#4
lovel=0
offset=8525
sample=Trombone_staccato_PP_A#3_RR2.opus
tune=-26
</region>

<region>
hivel=42
key=A#3
lovel=0
offset=342
sample=Trombone_staccato_PP_A#2_RR2.opus
tune=+6
</region>

<region>
hivel=42
key=A#2
lovel=0
offset=5932
sample=Trombone_staccato_PP_A#1_RR2.opus
tune=+1
</region>

<region>
hivel=86
key=G4
lovel=43
offset=38
sample=Trombone_staccato_MF_G3_RR2.opus
tune=-15
</region>

<region>
hivel=86
key=G3
lovel=43
offset=17
sample=Trombone_staccato_MF_G2_RR2.opus
tune=-7
</region>

<region>
hivel=86
key=G2
lovel=43
offset=1353
sample=Trombone_staccato_MF_G1_RR2.opus
tune=-28
</region>

<region>
hivel=86
key=G#4
lovel=43
offset=796
sample=Trombone_staccato_MF_G#3_RR2.opus
tune=-31
</region>

<region>
hivel=86
key=G#3
lovel=43
offset=480
sample=Trombone_staccato_MF_G#2_RR2.opus
</region>

<region>
hivel=86
key=G#2
lovel=43
offset=2213
sample=Trombone_staccato_MF_G#1_RR2.opus
tune=-39
</region>

<region>
hivel=86
key=F4
lovel=43
offset=1048
sample=Trombone_staccato_MF_F3_RR2.opus
tune=-17
</region>

<region>
hivel=86
key=F3
lovel=43
sample=Trombone_staccato_MF_F2_RR2.opus
tune=-30
</region>

<region>
hivel=86
key=F2
lovel=43
offset=6314
sample=Trombone_staccato_MF_F1_RR2.opus
tune=-13
</region>

<region>
hivel=86
key=F#4
lovel=43
offset=412
sample=Trombone_staccato_MF_F#3_RR2.opus
tune=-19
</region>

<region>
hivel=86
key=F#3
lovel=43
offset=795
sample=Trombone_staccato_MF_F#2_RR2.opus
tune=-16
</region>

<region>
hivel=86
key=F#2
lovel=43
offset=6386
sample=Trombone_staccato_MF_F#1_RR2.opus
tune=-33
</region>

<region>
hivel=86
key=E4
lovel=43
offset=8260
sample=Trombone_staccato_MF_E3_RR2.opus
tune=-16
</region>

<region>
hivel=86
key=E3
lovel=43
offset=6298
sample=Trombone_staccato_MF_E2_RR2.opus
tune=-21
</region>

<region>
hikey=E2
hivel=86
lokey=C1
lovel=43
offset=1280
pitch_keycenter=E2
sample=Trombone_staccato_MF_E1_RR2.opus
tune=-24
</region>

<region>
hivel=86
key=D4
lovel=43
offset=214
sample=Trombone_staccato_MF_D3_RR2.opus
tune=-18
</region>

<region>
hivel=86
key=D3
lovel=43
offset=835
sample=Trombone_staccato_MF_D2_RR2.opus
tune=-18
</region>

<region>
hivel=86
key=D#4
lovel=43
offset=7942
sample=Trombone_staccato_MF_D#3_RR2.opus
tune=-24
</region>

<region>
hivel=86
key=D#3
lovel=43
offset=788
sample=Trombone_staccato_MF_D#2_RR2.opus
tune=-30
</region>

<region>
hivel=86
key=C5
lovel=43
offset=6718
sample=Trombone_staccato_MF_C4_RR2.opus
tune=-15
</region>

<region>
hikey=C4
hivel=86
lokey=C4
lovel=43
offset=7989
sample=Trombone_staccato_MF_C3_RR2.opus
tune=-9
</region>

<region>
hivel=86
key=C3
lovel=43
offset=617
sample=Trombone_staccato_MF_C2_RR2.opus
tune=-4
</region>

<region>
hivel=86
key=C#4
lovel=43
offset=9922
sample=Trombone_staccato_MF_C#3_RR2.opus
tune=-4
</region>

<region>
hivel=86
key=C#3
lovel=43
offset=7328
sample=Trombone_staccato_MF_C#2_RR2.opus
tune=-24
</region>

<region>
hivel=86
key=B4
lovel=43
offset=463
sample=Trombone_staccato_MF_B3_RR2.opus
tune=-17
</region>

<region>
hivel=86
key=B3
lovel=43
offset=7322
sample=Trombone_staccato_MF_B2_RR2.opus
tune=-3
</region>

<region>
hivel=86
key=B2
lovel=43
offset=4513
sample=Trombone_staccato_MF_B1_RR2.opus
tune=-32
</region>

<region>
hivel=86
key=A4
lovel=43
offset=765
sample=Trombone_staccato_MF_A3_RR2.opus
tune=-25
</region>

<region>
hivel=86
key=A3
lovel=43
sample=Trombone_staccato_MF_A2_RR2.opus
tune=-12
</region>

<region>
hivel=86
key=A2
lovel=43
offset=4500
sample=Trombone_staccato_MF_A1_RR2.opus
tune=-26
</region>

<region>
hivel=86
key=A#4
lovel=43
offset=7210
sample=Trombone_staccato_MF_A#3_RR2.opus
tune=-17
</region>

<region>
hivel=86
key=A#3
lovel=43
offset=54
sample=Trombone_staccato_MF_A#2_RR2.opus
tune=-11
</region>

<region>
hivel=86
key=A#2
lovel=43
offset=355
sample=Trombone_staccato_MF_A#1_RR2.opus
tune=-21
</region>

<region>
hivel=127
key=G4
lovel=87
offset=5949
sample=Trombone_staccato_FF_G3_RR2.opus
tune=-16
</region>

<region>
hivel=127
key=G3
lovel=87
offset=8875
sample=Trombone_staccato_FF_G2_RR2.opus
tune=-5
</region>

<region>
hivel=127
key=G2
lovel=87
offset=503
sample=Trombone_staccato_FF_G1_RR2.opus
tune=-16
</region>

<region>
hivel=127
key=G#4
lovel=87
offset=6583
sample=Trombone_staccato_FF_G#3_RR2.opus
tune=-20
</region>

<region>
hivel=127
key=G#3
lovel=87
offset=596
sample=Trombone_staccato_FF_G#2_RR2.opus
tune=-27
</region>

<region>
hivel=127
key=G#2
lovel=87
offset=464
sample=Trombone_staccato_FF_G#1_RR2.opus
tune=-21
</region>

<region>
hivel=127
key=F4
lovel=87
offset=9331
sample=Trombone_staccato_FF_F3_RR2.opus
tune=-22
</region>

<region>
hivel=127
key=F3
lovel=87
offset=355
sample=Trombone_staccato_FF_F2_RR2.opus
tune=-10
</region>

<region>
hivel=127
key=F2
lovel=87
offset=615
sample=Trombone_staccato_FF_F1_RR2.opus
tune=-2
</region>

<region>
hivel=127
key=F#4
lovel=87
offset=410
sample=Trombone_staccato_FF_F#3_RR2.opus
tune=-19
</region>

<region>
hivel=127
key=F#3
lovel=87
sample=Trombone_staccato_FF_F#2_RR2.opus
tune=-1
</region>

<region>
hivel=127
key=F#2
lovel=87
offset=3768
sample=Trombone_staccato_FF_F#1_RR2.opus
tune=-20
</region>

<region>
hivel=127
key=E4
lovel=87
offset=1029
sample=Trombone_staccato_FF_E3_RR2.opus
tune=-16
</region>

<region>
hivel=127
key=E3
lovel=87
offset=582
sample=Trombone_staccato_FF_E2_RR2.opus
tune=-14
</region>

<region>
hikey=E2
hivel=127
lokey=C1
lovel=87
offset=8972
pitch_keycenter=E2
sample=Trombone_staccato_FF_E1_RR2.opus
tune=-34
</region>

<region>
hivel=127
key=D4
lovel=87
offset=187
sample=Trombone_staccato_FF_D3_RR2.opus
</region>

<region>
hivel=127
key=D3
lovel=87
offset=186
sample=Trombone_staccato_FF_D2_RR2.opus
tune=-14
</region>

<region>
hivel=127
key=D#4
lovel=87
offset=885
sample=Trombone_staccato_FF_D#3_RR2.opus
tune=-23
</region>

<region>
hivel=127
key=D#3
lovel=87
offset=910
sample=Trombone_staccato_FF_D#2_RR2.opus
tune=-17
</region>

<region>
hivel=127
key=C5
lovel=87
offset=1436
sample=Trombone_staccato_FF_C4_RR2.opus
tune=-21
</region>

<region>
hikey=C4
hivel=127
lokey=C4
lovel=87
offset=553
sample=Trombone_staccato_FF_C3_RR2.opus
tune=-3
</region>

<region>
hivel=127
key=C3
lovel=87
offset=621
sample=Trombone_staccato_FF_C2_RR2.opus
tune=-3
</region>

<region>
hivel=127
key=C#4
lovel=87
offset=433
sample=Trombone_staccato_FF_C#3_RR2.opus
tune=+4
</region>

<region>
hivel=127
key=C#3
lovel=87
offset=561
sample=Trombone_staccato_FF_C#2_RR2.opus
tune=-6
</region>

<region>
hivel=127
key=B4
lovel=87
offset=1004
sample=Trombone_staccato_FF_B3_RR2.opus
tune=-14
</region>

<region>
hivel=127
key=B3
lovel=87
offset=7063
sample=Trombone_staccato_FF_B2_RR2.opus
tune=+1
</region>

<region>
hivel=127
key=B2
lovel=87
offset=1041
sample=Trombone_staccato_FF_B1_RR2.opus
tune=-16
</region>

<region>
hivel=127
key=A4
lovel=87
offset=1036
sample=Trombone_staccato_FF_A3_RR2.opus
tune=-19
</region>

<region>
hivel=127
key=A3
lovel=87
offset=956
sample=Trombone_staccato_FF_A2_RR2.opus
tune=-7
</region>

<region>
hivel=127
key=A2
lovel=87
offset=373
sample=Trombone_staccato_FF_A1_RR2.opus
tune=-16
</region>

<region>
hivel=127
key=A#4
lovel=87
offset=458
sample=Trombone_staccato_FF_A#3_RR2.opus
tune=-9
</region>

<region>
hivel=127
key=A#3
lovel=87
sample=Trombone_staccato_FF_A#2_RR2.opus
tune=-6
</region>

<region>
hivel=127
key=A#2
lovel=87
offset=353
sample=Trombone_staccato_FF_A#1_RR2.opus
tune=-19
</region>
</group>

<group>
group_label=RR3
seq_length=4
seq_position=3

<region>
hivel=42
key=G4
lovel=0
sample=Trombone_staccato_PP_G3_RR3.opus
tune=-26
</region>

<region>
hivel=42
key=G3
lovel=0
offset=8704
sample=Trombone_staccato_PP_G2_RR3.opus
tune=-10
</region>

<region>
hivel=42
key=G2
lovel=0
offset=7559
sample=Trombone_staccato_PP_G1_RR3.opus
tune=-1
</region>

<region>
hivel=42
key=G#4
lovel=0
offset=1227
sample=Trombone_staccato_PP_G#3_RR3.opus
tune=-37
</region>

<region>
hivel=42
key=G#3
lovel=0
offset=5943
sample=Trombone_staccato_PP_G#2_RR3.opus
tune=-7
</region>

<region>
hivel=42
key=G#2
lovel=0
offset=5023
sample=Trombone_staccato_PP_G#1_RR3.opus
tune=-20
</region>

<region>
hivel=42
key=F4
lovel=0
offset=6404
sample=Trombone_staccato_PP_F3_RR3.opus
tune=-36
</region>

<region>
hivel=42
key=F3
lovel=0
offset=7423
sample=Trombone_staccato_PP_F2_RR3.opus
tune=-9
</region>

<region>
hivel=42
key=F2
lovel=0
offset=1754
sample=Trombone_staccato_PP_F1_RR3.opus
tune=-7
</region>

<region>
hivel=42
key=F#4
lovel=0
offset=3847
sample=Trombone_staccato_PP_F#3_RR3.opus
tune=-39
</region>

<region>
hivel=42
key=F#3
lovel=0
offset=6597
sample=Trombone_staccato_PP_F#2_RR3.opus
tune=-3
</region>

<region>
hivel=42
key=F#2
lovel=0
offset=6741
sample=Trombone_staccato_PP_F#1_RR3.opus
tune=-10
</region>

<region>
hivel=42
key=E4
lovel=0
offset=6148
sample=Trombone_staccato_PP_E3_RR3.opus
tune=-17
</region>

<region>
hivel=42
key=E3
lovel=0
offset=2590
sample=Trombone_staccato_PP_E2_RR3.opus
tune=-21
</region>

<region>
hikey=E2
hivel=42
lokey=C1
lovel=0
offset=5957
pitch_keycenter=E2
sample=Trombone_staccato_PP_E1_RR3.opus
tune=-13
</region>

<region>
hivel=42
key=D4
lovel=0
offset=8903
sample=Trombone_staccato_PP_D3_RR3.opus
tune=-22
</region>

<region>
hivel=42
key=D3
lovel=0
offset=1829
sample=Trombone_staccato_PP_D2_RR3.opus
tune=-18
</region>

<region>
hivel=42
key=D#4
lovel=0
offset=7238
sample=Trombone_staccato_PP_D#3_RR3.opus
tune=-35
</region>

<region>
hivel=42
key=D#3
lovel=0
offset=4246
sample=Trombone_staccato_PP_D#2_RR3.opus
tune=+14
</region>

<region>
hivel=42
key=C5
lovel=0
sample=Trombone_staccato_PP_C4_RR3.opus
tune=-22
</region>

<region>
hikey=C4
hivel=42
lokey=C4
lovel=0
offset=7047
sample=Trombone_staccato_PP_C3_RR3.opus
tune=-16
</region>

<region>
hivel=42
key=C3
lovel=0
offset=2460
sample=Trombone_staccato_PP_C2_RR3.opus
tune=+16
</region>

<region>
hivel=42
key=C#4
lovel=0
offset=480
sample=Trombone_staccato_PP_C#3_RR3.opus
tune=-19
</region>

<region>
hivel=42
key=C#3
lovel=0
offset=4196
sample=Trombone_staccato_PP_C#2_RR3.opus
tune=-2
</region>

<region>
hivel=42
key=B4
lovel=0
offset=290
sample=Trombone_staccato_PP_B3_RR3.opus
tune=-25
</region>

<region>
hivel=42
key=B3
lovel=0
offset=6987
sample=Trombone_staccato_PP_B2_RR3.opus
tune=-5
</region>

<region>
hivel=42
key=B2
lovel=0
offset=6688
sample=Trombone_staccato_PP_B1_RR3.opus
tune=-5
</region>

<region>
hivel=42
key=A4
lovel=0
sample=Trombone_staccato_PP_A3_RR3.opus
tune=-21
</region>

<region>
hivel=42
key=A3
lovel=0
offset=310
sample=Trombone_staccato_PP_A2_RR3.opus
tune=-1
</region>

<region>
hivel=42
key=A2
lovel=0
offset=3542
sample=Trombone_staccato_PP_A1_RR3.opus
tune=-8
</region>

<region>
hivel=42
key=A#4
lovel=0
offset=401
sample=Trombone_staccato_PP_A#3_RR3.opus
tune=-28
</region>

<region>
hivel=42
key=A#3
lovel=0
offset=9600
sample=Trombone_staccato_PP_A#2_RR3.opus
tune=+4
</region>

<region>
hivel=42
key=A#2
lovel=0
offset=2057
sample=Trombone_staccato_PP_A#1_RR3.opus
tune=-6
</region>

<region>
hivel=86
key=G4
lovel=43
offset=111
sample=Trombone_staccato_MF_G3_RR3.opus
tune=-17
</region>

<region>
hivel=86
key=G3
lovel=43
offset=6889
sample=Trombone_staccato_MF_G2_RR3.opus
tune=-17
</region>

<region>
hivel=86
key=G2
lovel=43
offset=1375
sample=Trombone_staccato_MF_G1_RR3.opus
tune=-30
</region>

<region>
hivel=86
key=G#4
lovel=43
offset=823
sample=Trombone_staccato_MF_G#3_RR3.opus
tune=-30
</region>

<region>
hivel=86
key=G#3
lovel=43
offset=272
sample=Trombone_staccato_MF_G#2_RR3.opus
tune=-7
</region>

<region>
hivel=86
key=G#2
lovel=43
offset=3635
sample=Trombone_staccato_MF_G#1_RR3.opus
tune=-44
</region>

<region>
hivel=86
key=F4
lovel=43
offset=7740
sample=Trombone_staccato_MF_F3_RR3.opus
tune=-21
</region>

<region>
hivel=86
key=F3
lovel=43
offset=5979
sample=Trombone_staccato_MF_F2_RR3.opus
tune=-26
</region>

<region>
hivel=86
key=F2
lovel=43
offset=9005
sample=Trombone_staccato_MF_F1_RR3.opus
tune=-10
</region>

<region>
hivel=86
key=F#4
lovel=43
offset=331
sample=Trombone_staccato_MF_F#3_RR3.opus
tune=-17
</region>

<region>
hivel=86
key=F#3
lovel=43
offset=6168
sample=Trombone_staccato_MF_F#2_RR3.opus
tune=-14
</region>

<region>
hivel=86
key=F#2
lovel=43
offset=3855
sample=Trombone_staccato_MF_F#1_RR3.opus
tune=-30
</region>

<region>
hivel=86
key=E4
lovel=43
offset=5875
sample=Trombone_staccato_MF_E3_RR3.opus
tune=-19
</region>

<region>
hivel=86
key=E3
lovel=43
offset=6013
sample=Trombone_staccato_MF_E2_RR3.opus
tune=-14
</region>

<region>
hikey=E2
hivel=86
lokey=C1
lovel=43
offset=5688
pitch_keycenter=E2
sample=Trombone_staccato_MF_E1_RR3.opus
tune=-22
</region>

<region>
hivel=86
key=D4
lovel=43
offset=377
sample=Trombone_staccato_MF_D3_RR3.opus
tune=-23
</region>

<region>
hivel=86
key=D3
lovel=43
offset=1092
sample=Trombone_staccato_MF_D2_RR3.opus
tune=-12
</region>

<region>
hivel=86
key=D#4
lovel=43
offset=977
sample=Trombone_staccato_MF_D#3_RR3.opus
tune=-28
</region>

<region>
hivel=86
key=D#3
lovel=43
offset=1941
sample=Trombone_staccato_MF_D#2_RR3.opus
tune=-30
</region>

<region>
hivel=86
key=C5
lovel=43
offset=7847
sample=Trombone_staccato_MF_C4_RR3.opus
tune=-16
</region>

<region>
hikey=C4
hivel=86
lokey=C4
lovel=43
offset=7770
sample=Trombone_staccato_MF_C3_RR3.opus
tune=-5
</region>

<region>
hivel=86
key=C3
lovel=43
offset=4125
sample=Trombone_staccato_MF_C2_RR3.opus
tune=-6
</region>

<region>
hivel=86
key=C#4
lovel=43
offset=7065
sample=Trombone_staccato_MF_C#3_RR3.opus
tune=-11
</region>

<region>
hivel=86
key=C#3
lovel=43
offset=4558
sample=Trombone_staccato_MF_C#2_RR3.opus
tune=-31
</region>

<region>
hivel=86
key=B4
lovel=43
offset=196
sample=Trombone_staccato_MF_B3_RR3.opus
tune=-16
</region>

<region>
hivel=86
key=B3
lovel=43
offset=703
sample=Trombone_staccato_MF_B2_RR3.opus
tune=-9
</region>

<region>
hivel=86
key=B2
lovel=43
offset=4901
sample=Trombone_staccato_MF_B1_RR3.opus
tune=-35
</region>

<region>
hivel=86
key=A4
lovel=43
offset=473
sample=Trombone_staccato_MF_A3_RR3.opus
tune=-24
</region>

<region>
hivel=86
key=A3
lovel=43
offset=317
sample=Trombone_staccato_MF_A2_RR3.opus
tune=-14
</region>

<region>
hivel=86
key=A2
lovel=43
offset=4844
sample=Trombone_staccato_MF_A1_RR3.opus
tune=-26
</region>

<region>
hivel=86
key=A#4
lovel=43
offset=5438
sample=Trombone_staccato_MF_A#3_RR3.opus
tune=-18
</region>

<region>
hivel=86
key=A#3
lovel=43
offset=342
sample=Trombone_staccato_MF_A#2_RR3.opus
tune=-10
</region>

<region>
hivel=86
key=A#2
lovel=43
offset=3790
sample=Trombone_staccato_MF_A#1_RR3.opus
tune=-21
</region>

<region>
hivel=127
key=G4
lovel=87
offset=804
sample=Trombone_staccato_FF_G3_RR3.opus
tune=-16
</region>

<region>
hivel=127
key=G3
lovel=87
offset=5597
sample=Trombone_staccato_FF_G2_RR3.opus
tune=-10
</region>

<region>
hivel=127
key=G2
lovel=87
offset=871
sample=Trombone_staccato_FF_G1_RR3.opus
tune=-21
</region>

<region>
hivel=127
key=G#4
lovel=87
offset=5045
sample=Trombone_staccato_FF_G#3_RR3.opus
tune=-20
</region>

<region>
hivel=127
key=G#3
lovel=87
offset=467
sample=Trombone_staccato_FF_G#2_RR3.opus
tune=-25
</region>

<region>
hivel=127
key=G#2
lovel=87
offset=454
sample=Trombone_staccato_FF_G#1_RR3.opus
tune=-19
</region>

<region>
hivel=127
key=F4
lovel=87
offset=7412
sample=Trombone_staccato_FF_F3_RR3.opus
tune=-21
</region>

<region>
hivel=127
key=F3
lovel=87
offset=343
sample=Trombone_staccato_FF_F2_RR3.opus
tune=-14
</region>

<region>
hivel=127
key=F2
lovel=87
offset=171
sample=Trombone_staccato_FF_F1_RR3.opus
tune=-1
</region>

<region>
hivel=127
key=F#4
lovel=87
offset=429
sample=Trombone_staccato_FF_F#3_RR3.opus
tune=-21
</region>

<region>
hivel=127
key=F#3
lovel=87
sample=Trombone_staccato_FF_F#2_RR3.opus
</region>

<region>
hivel=127
key=F#2
lovel=87
offset=5197
sample=Trombone_staccato_FF_F#1_RR3.opus
tune=-24
</region>

<region>
hivel=127
key=E4
lovel=87
offset=724
sample=Trombone_staccato_FF_E3_RR3.opus
tune=-17
</region>

<region>
hivel=127
key=E3
lovel=87
offset=130
sample=Trombone_staccato_FF_E2_RR3.opus
tune=-13
</region>

<region>
hikey=E2
hivel=127
lokey=C1
lovel=87
offset=7429
pitch_keycenter=E2
sample=Trombone_staccato_FF_E1_RR3.opus
tune=-33
</region>

<region>
hivel=127
key=D4
lovel=87
offset=202
sample=Trombone_staccato_FF_D3_RR3.opus
tune=+1
</region>

<region>
hivel=127
key=D3
lovel=87
offset=531
sample=Trombone_staccato_FF_D2_RR3.opus
tune=-2
</region>

<region>
hivel=127
key=D#4
lovel=87
offset=6582
sample=Trombone_staccato_FF_D#3_RR3.opus
tune=-18
</region>

<region>
hivel=127
key=D#3
lovel=87
sample=Trombone_staccato_FF_D#2_RR3.opus
tune=-14
</region>

<region>
hivel=127
key=C5
lovel=87
offset=1343
sample=Trombone_staccato_FF_C4_RR3.opus
tune=-16
</region>

<region>
hikey=C4
hivel=127
lokey=C4
lovel=87
offset=550
sample=Trombone_staccato_FF_C3_RR3.opus
tune=-4
</region>

<region>
hivel=127
key=C3
lovel=87
offset=619
sample=Trombone_staccato_FF_C2_RR3.opus
tune=+9
</region>

<region>
hivel=127
key=C#4
lovel=87
offset=434
sample=Trombone_staccato_FF_C#3_RR3.opus
tune=+5
</region>

<region>
hivel=127
key=C#3
lovel=87
sample=Trombone_staccato_FF_C#2_RR3.opus
tune=-9
</region>

<region>
hivel=127
key=B4
lovel=87
offset=1185
sample=Trombone_staccato_FF_B3_RR3.opus
tune=-13
</region>

<region>
hivel=127
key=B3
lovel=87
offset=5545
sample=Trombone_staccato_FF_B2_RR3.opus
tune=-9
</region>

<region>
hivel=127
key=B2
lovel=87
offset=1042
sample=Trombone_staccato_FF_B1_RR3.opus
tune=-17
</region>

<region>
hivel=127
key=A4
lovel=87
offset=1037
sample=Trombone_staccato_FF_A3_RR3.opus
tune=-11
</region>

<region>
hivel=127
key=A3
lovel=87
offset=632
sample=Trombone_staccato_FF_A2_RR3.opus
tune=-6
</region>

<region>
hivel=127
key=A2
lovel=87
offset=392
sample=Trombone_staccato_FF_A1_RR3.opus
tune=-14
</region>

<region>
hivel=127
key=A#4
lovel=87
offset=772
sample=Trombone_staccato_FF_A#3_RR3.opus
tune=-8
</region>

<region>
hivel=127
key=A#3
lovel=87
offset=759
sample=Trombone_staccato_FF_A#2_RR3.opus
tune=-2
</region>

<region>
hivel=127
key=A#2
lovel=87
offset=355
sample=Trombone_staccato_FF_A#1_RR3.opus
tune=-19
</region>
</group>

<group>
group_label=RR4
seq_length=4
seq_position=4

<region>
hivel=42
key=G4
lovel=0
offset=7134
sample=Trombone_staccato_PP_G3_RR4.opus
tune=-22
</region>

<region>
hivel=42
key=G3
lovel=0
offset=6884
sample=Trombone_staccato_PP_G2_RR4.opus
tune=-17
</region>

<region>
hivel=42
key=G2
lovel=0
offset=7523
sample=Trombone_staccato_PP_G1_RR4.opus
tune=-6
</region>

<region>
hivel=42
key=G#4
lovel=0
offset=6553
sample=Trombone_staccato_PP_G#3_RR4.opus
tune=-37
</region>

<region>
hivel=42
key=G#3
lovel=0
offset=1774
sample=Trombone_staccato_PP_G#2_RR4.opus
tune=-9
</region>

<region>
hivel=42
key=G#2
lovel=0
offset=5298
sample=Trombone_staccato_PP_G#1_RR4.opus
tune=-9
</region>

<region>
hivel=42
key=F4
lovel=0
offset=6312
sample=Trombone_staccato_PP_F3_RR4.opus
tune=-33
</region>

<region>
hivel=42
key=F3
lovel=0
offset=6149
sample=Trombone_staccato_PP_F2_RR4.opus
tune=-15
</region>

<region>
hivel=42
key=F2
lovel=0
offset=8288
sample=Trombone_staccato_PP_F1_RR4.opus
tune=-17
</region>

<region>
hivel=42
key=F#4
lovel=0
offset=4448
sample=Trombone_staccato_PP_F#3_RR4.opus
tune=-36
</region>

<region>
hivel=42
key=F#3
lovel=0
offset=8457
sample=Trombone_staccato_PP_F#2_RR4.opus
tune=+3
</region>

<region>
hivel=42
key=F#2
lovel=0
offset=7221
sample=Trombone_staccato_PP_F#1_RR4.opus
tune=-6
</region>

<region>
hivel=42
key=E4
lovel=0
offset=6125
sample=Trombone_staccato_PP_E3_RR4.opus
tune=-16
</region>

<region>
hivel=42
key=E3
lovel=0
offset=2057
sample=Trombone_staccato_PP_E2_RR4.opus
tune=-13
</region>

<region>
hikey=E2
hivel=42
lokey=C1
lovel=0
offset=7871
pitch_keycenter=E2
sample=Trombone_staccato_PP_E1_RR4.opus
tune=-17
</region>

<region>
hivel=42
key=D4
lovel=0
offset=7152
sample=Trombone_staccato_PP_D3_RR4.opus
tune=-23
</region>

<region>
hivel=42
key=D3
lovel=0
offset=2647
sample=Trombone_staccato_PP_D2_RR4.opus
tune=-20
</region>

<region>
hivel=42
key=D#4
lovel=0
offset=10485
sample=Trombone_staccato_PP_D#3_RR4.opus
tune=-35
</region>

<region>
hivel=42
key=D#3
lovel=0
offset=5646
sample=Trombone_staccato_PP_D#2_RR4.opus
tune=+10
</region>

<region>
hivel=42
key=C5
lovel=0
offset=415
sample=Trombone_staccato_PP_C4_RR4.opus
tune=-28
</region>

<region>
hikey=C4
hivel=42
lokey=C4
lovel=0
offset=6127
sample=Trombone_staccato_PP_C3_RR4.opus
tune=-13
</region>

<region>
hivel=42
key=C3
lovel=0
offset=653
sample=Trombone_staccato_PP_C2_RR4.opus
tune=+23
</region>

<region>
hivel=42
key=C#4
lovel=0
offset=68
sample=Trombone_staccato_PP_C#3_RR4.opus
tune=-27
</region>

<region>
hivel=42
key=C#3
lovel=0
offset=5206
sample=Trombone_staccato_PP_C#2_RR4.opus
tune=+4
</region>

<region>
hivel=42
key=B4
lovel=0
offset=9
sample=Trombone_staccato_PP_B3_RR4.opus
tune=-26
</region>

<region>
hivel=42
key=B3
lovel=0
offset=776
sample=Trombone_staccato_PP_B2_RR4.opus
tune=-3
</region>

<region>
hivel=42
key=B2
lovel=0
offset=6593
sample=Trombone_staccato_PP_B1_RR4.opus
tune=-8
</region>

<region>
hivel=42
key=A4
lovel=0
sample=Trombone_staccato_PP_A3_RR4.opus
tune=-21
</region>

<region>
hivel=42
key=A3
lovel=0
offset=1300
sample=Trombone_staccato_PP_A2_RR4.opus
tune=+4
</region>

<region>
hivel=42
key=A2
lovel=0
offset=6113
sample=Trombone_staccato_PP_A1_RR4.opus
tune=-7
</region>

<region>
hivel=42
key=A#4
lovel=0
offset=309
sample=Trombone_staccato_PP_A#3_RR4.opus
tune=-23
</region>

<region>
hivel=42
key=A#3
lovel=0
offset=1481
sample=Trombone_staccato_PP_A#2_RR4.opus
tune=-1
</region>

<region>
hivel=42
key=A#2
lovel=0
offset=4913
sample=Trombone_staccato_PP_A#1_RR4.opus
tune=-11
</region>

<region>
hivel=86
key=G4
lovel=43
offset=155
sample=Trombone_staccato_MF_G3_RR4.opus
tune=-20
</region>

<region>
hivel=86
key=G3
lovel=43
offset=6181
sample=Trombone_staccato_MF_G2_RR4.opus
tune=-12
</region>

<region>
hivel=86
key=G2
lovel=43
offset=535
sample=Trombone_staccato_MF_G1_RR4.opus
tune=-24
</region>

<region>
hivel=86
key=G#4
lovel=43
offset=327
sample=Trombone_staccato_MF_G#3_RR4.opus
tune=-32
</region>

<region>
hivel=86
key=G#3
lovel=43
offset=271
sample=Trombone_staccato_MF_G#2_RR4.opus
tune=-9
</region>

<region>
hivel=86
key=G#2
lovel=43
offset=4543
sample=Trombone_staccato_MF_G#1_RR4.opus
tune=-35
</region>

<region>
hivel=86
key=F4
lovel=43
offset=8271
sample=Trombone_staccato_MF_F3_RR4.opus
tune=-15
</region>

<region>
hivel=86
key=F3
lovel=43
sample=Trombone_staccato_MF_F2_RR4.opus
tune=-21
</region>

<region>
hivel=86
key=F2
lovel=43
offset=7752
sample=Trombone_staccato_MF_F1_RR4.opus
tune=-11
</region>

<region>
hivel=86
key=F#4
lovel=43
offset=410
sample=Trombone_staccato_MF_F#3_RR4.opus
tune=-17
</region>

<region>
hivel=86
key=F#3
lovel=43
offset=7328
sample=Trombone_staccato_MF_F#2_RR4.opus
tune=-12
</region>

<region>
hivel=86
key=F#2
lovel=43
offset=950
sample=Trombone_staccato_MF_F#1_RR4.opus
tune=-24
</region>

<region>
hivel=86
key=E4
lovel=43
offset=96
sample=Trombone_staccato_MF_E3_RR4.opus
tune=-20
</region>

<region>
hivel=86
key=E3
lovel=43
offset=434
sample=Trombone_staccato_MF_E2_RR4.opus
tune=-9
</region>

<region>
hikey=E2
hivel=86
lokey=C1
lovel=43
offset=8523
pitch_keycenter=E2
sample=Trombone_staccato_MF_E1_RR4.opus
tune=-30
</region>

<region>
hivel=86
key=D4
lovel=43
sample=Trombone_staccato_MF_D3_RR4.opus
tune=-21
</region>

<region>
hivel=86
key=D3
lovel=43
offset=7153
sample=Trombone_staccato_MF_D2_RR4.opus
tune=-11
</region>

<region>
hivel=86
key=D#4
lovel=43
offset=1266
sample=Trombone_staccato_MF_D#3_RR4.opus
tune=-31
</region>

<region>
hivel=86
key=D#3
lovel=43
offset=4475
sample=Trombone_staccato_MF_D#2_RR4.opus
tune=-28
</region>

<region>
hivel=86
key=C5
lovel=43
offset=497
sample=Trombone_staccato_MF_C4_RR4.opus
tune=-23
</region>

<region>
hikey=C4
hivel=86
lokey=C4
lovel=43
offset=7572
sample=Trombone_staccato_MF_C3_RR4.opus
tune=-7
</region>

<region>
hivel=86
key=C3
lovel=43
offset=5078
sample=Trombone_staccato_MF_C2_RR4.opus
tune=-4
</region>

<region>
hivel=86
key=C#4
lovel=43
offset=837
sample=Trombone_staccato_MF_C#3_RR4.opus
tune=-12
</region>

<region>
hivel=86
key=C#3
lovel=43
offset=958
sample=Trombone_staccato_MF_C#2_RR4.opus
tune=-29
</region>

<region>
hivel=86
key=B4
lovel=43
offset=479
sample=Trombone_staccato_MF_B3_RR4.opus
tune=-26
</region>

<region>
hivel=86
key=B3
lovel=43
offset=506
sample=Trombone_staccato_MF_B2_RR4.opus
tune=-5
</region>

<region>
hivel=86
key=B2
lovel=43
offset=5072
sample=Trombone_staccato_MF_B1_RR4.opus
tune=-33
</region>

<region>
hivel=86
key=A4
lovel=43
offset=654
sample=Trombone_staccato_MF_A3_RR4.opus
tune=-25
</region>

<region>
hivel=86
key=A3
lovel=43
sample=Trombone_staccato_MF_A2_RR4.opus
tune=-9
</region>

<region>
hivel=86
key=A2
lovel=43
offset=4354
sample=Trombone_staccato_MF_A1_RR4.opus
tune=-21
</region>

<region>
hivel=86
key=A#4
lovel=43
offset=678
sample=Trombone_staccato_MF_A#3_RR4.opus
tune=-21
</region>

<region>
hivel=86
key=A#3
lovel=43
offset=52
sample=Trombone_staccato_MF_A#2_RR4.opus
tune=-19
</region>

<region>
hivel=86
key=A#2
lovel=43
offset=4983
sample=Trombone_staccato_MF_A#1_RR4.opus
tune=-19
</region>

<region>
hivel=127
key=G4
lovel=87
offset=581
sample=Trombone_staccato_FF_G3_RR4.opus
tune=-18
</region>

<region>
hivel=127
key=G3
lovel=87
offset=5393
sample=Trombone_staccato_FF_G2_RR4.opus
tune=-7
</region>

<region>
hivel=127
key=G2
lovel=87
offset=489
sample=Trombone_staccato_FF_G1_RR4.opus
tune=-24
</region>

<region>
hivel=127
key=G#4
lovel=87
offset=356
sample=Trombone_staccato_FF_G#3_RR4.opus
tune=-23
</region>

<region>
hivel=127
key=G#3
lovel=87
offset=4329
sample=Trombone_staccato_FF_G#2_RR4.opus
tune=-26
</region>

<region>
hivel=127
key=G#2
lovel=87
offset=951
sample=Trombone_staccato_FF_G#1_RR4.opus
tune=-13
</region>

<region>
hivel=127
key=F4
lovel=87
offset=347
sample=Trombone_staccato_FF_F3_RR4.opus
tune=-21
</region>

<region>
hivel=127
key=F3
lovel=87
offset=6026
sample=Trombone_staccato_FF_F2_RR4.opus
tune=-13
</region>

<region>
hivel=127
key=F2
lovel=87
offset=616
sample=Trombone_staccato_FF_F1_RR4.opus
tune=-5
</region>

<region>
hivel=127
key=F#4
lovel=87
offset=341
sample=Trombone_staccato_FF_F#3_RR4.opus
tune=-21
</region>

<region>
hivel=127
key=F#3
lovel=87
offset=42
sample=Trombone_staccato_FF_F#2_RR4.opus
tune=-5
</region>

<region>
hivel=127
key=F#2
lovel=87
offset=5464
sample=Trombone_staccato_FF_F#1_RR4.opus
tune=-25
</region>

<region>
hivel=127
key=E4
lovel=87
offset=1035
sample=Trombone_staccato_FF_E3_RR4.opus
tune=-15
</region>

<region>
hivel=127
key=E3
lovel=87
offset=965
sample=Trombone_staccato_FF_E2_RR4.opus
tune=-16
</region>

<region>
hikey=E2
hivel=127
lokey=C1
lovel=87
offset=6207
pitch_keycenter=E2
sample=Trombone_staccato_FF_E1_RR4.opus
tune=-29
</region>

<region>
hivel=127
key=D4
lovel=87
offset=332
sample=Trombone_staccato_FF_D3_RR4.opus
tune=+5
</region>

<region>
hivel=127
key=D3
lovel=87
offset=521
sample=Trombone_staccato_FF_D2_RR4.opus
tune=-8
</region>

<region>
hivel=127
key=D#4
lovel=87
offset=672
sample=Trombone_staccato_FF_D#3_RR4.opus
tune=-16
</region>

<region>
hivel=127
key=D#3
lovel=87
offset=455
sample=Trombone_staccato_FF_D#2_RR4.opus
tune=-18
</region>

<region>
hivel=127
key=C5
lovel=87
offset=590
sample=Trombone_staccato_FF_C4_RR4.opus
tune=-15
</region>

<region>
hikey=C4
hivel=127
lokey=C4
lovel=87
offset=87
sample=Trombone_staccato_FF_C3_RR4.opus
tune=-5
</region>

<region>
hivel=127
key=C3
lovel=87
offset=3468
sample=Trombone_staccato_FF_C2_RR4.opus
tune=+6
</region>

<region>
hivel=127
key=C#4
lovel=87
offset=440
sample=Trombone_staccato_FF_C#3_RR4.opus
tune=+9
</region>

<region>
hivel=127
key=C#3
lovel=87
offset=259
sample=Trombone_staccato_FF_C#2_RR4.opus
tune=-12
</region>

<region>
hivel=127
key=B4
lovel=87
offset=1529
sample=Trombone_staccato_FF_B3_RR4.opus
tune=-16
</region>

<region>
hivel=127
key=B3
lovel=87
offset=732
sample=Trombone_staccato_FF_B2_RR4.opus
tune=-5
</region>

<region>
hivel=127
key=B2
lovel=87
offset=791
sample=Trombone_staccato_FF_B1_RR4.opus
tune=-11
</region>

<region>
hivel=127
key=A4
lovel=87
offset=537
sample=Trombone_staccato_FF_A3_RR4.opus
tune=-16
</region>

<region>
hivel=127
key=A3
lovel=87
offset=424
sample=Trombone_staccato_FF_A2_RR4.opus
tune=-4
</region>

<region>
hivel=127
key=A2
lovel=87
offset=390
sample=Trombone_staccato_FF_A1_RR4.opus
tune=-18
</region>

<region>
hivel=127
key=A#4
lovel=87
offset=970
sample=Trombone_staccato_FF_A#3_RR4.opus
tune=-11
</region>

<region>
hivel=127
key=A#3
lovel=87
offset=357
sample=Trombone_staccato_FF_A#2_RR4.opus
tune=-3
</region>

<region>
hivel=127
key=A#2
lovel=87
sample=Trombone_staccato_FF_A#1_RR4.opus
tune=-18
</region>
</group>